<?xml version="1.0" standalone="no"?>
<!DOCTYPE svg PUBLIC "-//W3C//DTD SVG 20010904//EN"
 "http://www.w3.org/TR/2001/REC-SVG-20010904/DTD/svg10.dtd">
<svg version="1.0" xmlns="http://www.w3.org/2000/svg"
 width="512.000000pt" height="512.000000pt" viewBox="0 0 512.000000 512.000000"
 preserveAspectRatio="xMidYMid meet">

<g transform="translate(0.000000,512.000000) scale(0.100000,-0.100000)"
fill="#000000" stroke="none">
<path d="M1892 4693 c-71 -35 -121 -127 -107 -196 20 -96 93 -157 186 -157
160 0 244 184 139 304 -56 64 -147 84 -218 49z"/>
<path d="M1530 4251 c-102 -32 -231 -73 -287 -90 l-103 -32 0 -269 0 -270 90
0 90 0 2 188 3 187 103 34 c57 18 105 31 108 28 3 -2 -22 -112 -56 -243 -206
-804 -340 -1331 -340 -1338 0 -3 42 -6 93 -6 l93 0 46 133 c90 257 248 700
252 704 2 2 58 -69 125 -158 l121 -163 0 -258 0 -258 90 0 90 0 0 339 0 339
-88 158 c-49 88 -106 192 -127 232 l-39 72 32 133 c18 73 37 138 41 146 6 9
24 -14 61 -78 l52 -91 254 0 254 0 0 95 0 95 -188 0 -189 0 -103 173 c-114
189 -139 223 -187 243 -53 23 -99 16 -293 -45z"/>
<path d="M2625 3791 c-45 -28 -72 -62 -91 -111 -9 -25 -67 -193 -130 -375
l-114 -329 0 -503 0 -502 31 -36 31 -35 112 0 c125 0 148 9 172 66 8 18 14 63
14 99 l0 65 720 0 720 0 0 -70 c0 -77 15 -118 52 -144 17 -12 49 -16 133 -16
111 0 111 0 141 31 l29 30 3 507 3 507 -130 374 c-135 388 -146 412 -213 447
-23 12 -146 14 -740 14 -678 0 -714 -1 -743 -19z m1496 -428 c48 -144 84 -264
81 -267 -8 -9 -1660 -7 -1665 2 -3 5 135 436 166 515 6 16 45 17 668 15 l662
-3 88 -262z m-1306 -547 c155 -119 36 -367 -152 -317 -54 15 -92 46 -114 95
-43 95 -6 200 86 242 49 23 136 13 180 -20z m1288 20 c173 -74 122 -339 -66
-340 -161 -2 -242 173 -139 296 47 55 135 74 205 44z"/>
<path d="M1167 2318 c-176 -22 -274 -127 -270 -290 4 -125 65 -198 236 -281
119 -58 141 -75 131 -101 -18 -46 -167 -35 -302 22 l-72 31 0 -129 0 -129 31
-17 c176 -91 412 -99 537 -20 84 53 122 125 122 233 0 49 -7 73 -37 132 -44
87 -88 127 -203 185 -144 72 -134 65 -114 87 26 28 124 26 211 -6 37 -13 71
-21 75 -17 3 4 21 43 38 87 32 80 32 80 11 93 -16 11 -18 18 -11 33 13 23 -18
41 -122 68 -92 24 -174 30 -261 19z m258 -67 c33 -11 49 -18 35 -15 -14 4 -73
8 -131 11 -126 6 -195 -10 -261 -60 -65 -50 -92 -106 -92 -194 0 -39 -4 -69
-8 -67 -3 2 -12 29 -18 60 -30 141 40 247 187 284 61 15 220 5 288 -19z m-85
-621 c16 -29 4 -58 -33 -76 -39 -21 -134 -14 -232 17 -80 24 -83 34 -5 13 82
-22 182 -15 215 16 14 13 25 29 25 37 0 20 18 16 30 -7z m-370 -91 c0 -64 -3
-79 -15 -79 -12 0 -15 16 -15 85 0 71 2 83 15 79 12 -5 15 -24 15 -85z"/>
<path d="M1647 2314 c-4 -4 -7 -214 -7 -466 l0 -458 40 0 c29 0 40 -4 40 -15
0 -13 39 -15 290 -15 l290 0 0 95 c0 76 -3 95 -14 95 -10 0 -16 13 -18 38 l-3
37 -152 3 -153 3 0 304 c0 259 -2 305 -14 305 -10 0 -16 13 -18 38 l-3 37
-136 3 c-74 1 -138 -1 -142 -4z m233 -59 c0 -12 -16 -15 -80 -15 l-80 0 0
-405 c0 -353 -2 -405 -15 -405 -13 0 -15 53 -15 420 l0 420 95 0 c78 0 95 -3
95 -15z m340 -690 c0 -13 -21 -15 -130 -15 -109 0 -130 2 -130 15 0 13 21 15
130 15 109 0 130 -2 130 -15z"/>
<path d="M1308 1229 c-25 -14 -24 -65 1 -79 32 -16 69 -12 85 11 34 49 -31
100 -86 68z"/>
<path d="M1672 1150 c2 -44 2 -80 0 -80 -1 0 -12 9 -24 20 -51 47 -146 8 -168
-68 -24 -87 1 -206 48 -231 36 -19 100 -13 124 11 l22 22 14 -22 c11 -16 24
-22 53 -22 l39 0 0 225 0 225 -56 0 -56 0 4 -80z m-2 -149 c16 -31 12 -102 -7
-123 -50 -56 -106 31 -73 116 12 33 64 37 80 7z"/>
<path d="M2570 1005 l0 -225 55 0 55 0 0 79 c0 106 8 139 38 159 23 15 25 15
43 -7 16 -19 19 -41 19 -127 l0 -104 56 0 56 0 -4 136 -3 136 -33 29 c-41 37
-105 40 -146 8 l-26 -20 0 80 0 81 -55 0 -55 0 0 -225z"/>
<path d="M2319 1201 c-72 -22 -105 -68 -96 -134 7 -49 43 -89 107 -116 54 -23
75 -44 66 -66 -7 -20 -94 -20 -141 -1 l-35 15 0 -50 c0 -44 3 -51 26 -59 38
-15 150 -12 189 4 43 18 75 69 75 118 0 48 -39 94 -105 123 -63 28 -83 49 -65
70 16 19 46 19 98 1 l40 -14 16 41 c19 48 16 51 -57 67 -55 11 -81 12 -118 1z"/>
<path d="M900 990 l0 -210 55 0 55 0 0 80 c0 61 3 80 14 80 7 0 34 -36 60 -80
l46 -80 60 0 c33 0 60 2 60 5 0 3 -25 43 -56 90 l-57 84 32 36 c26 29 31 44
31 84 0 93 -48 121 -207 121 l-93 0 0 -210z m171 120 c22 -12 26 -59 7 -78 -7
-7 -25 -12 -40 -12 -27 0 -28 2 -28 50 0 44 3 50 21 50 11 0 29 -5 40 -10z"/>
<path d="M1290 945 l0 -165 55 0 55 0 0 165 0 165 -55 0 -55 0 0 -165z"/>
<path d="M1930 1092 c-43 -21 -80 -89 -80 -147 0 -58 37 -126 80 -147 40 -20
159 -25 191 -8 13 8 19 21 19 46 0 35 0 35 -32 27 -62 -15 -109 -9 -130 18
l-20 24 101 3 101 3 0 58 c0 65 -20 100 -70 126 -39 20 -117 19 -160 -3z m111
-62 c10 -6 19 -20 19 -30 0 -17 -7 -20 -45 -20 -38 0 -45 3 -45 20 0 10 8 24
18 29 22 13 29 13 53 1z"/>
<path d="M3023 1099 c-37 -11 -39 -18 -18 -60 13 -24 19 -28 35 -19 31 16 97
13 104 -6 4 -9 5 -18 4 -19 -2 -1 -34 -7 -72 -13 -92 -15 -121 -42 -120 -109
1 -37 6 -51 28 -70 37 -31 112 -32 151 -2 22 18 29 20 36 8 5 -8 9 -17 9 -21
0 -5 18 -8 41 -8 l41 0 -4 135 c-3 132 -4 135 -31 162 -24 24 -35 28 -100 30
-39 1 -87 -2 -104 -8z m127 -192 c0 -29 -32 -60 -57 -55 -11 2 -19 14 -21 31
-3 21 2 29 20 36 41 17 58 13 58 -12z"/>
<path d="M3340 945 l0 -165 55 0 55 0 0 93 c0 109 9 126 67 134 38 5 41 8 47
42 10 59 9 61 -30 61 -26 0 -43 -8 -64 -29 l-29 -28 -10 28 c-9 26 -15 29 -50
29 l-41 0 0 -165z"/>
<path d="M3680 1091 c-51 -27 -74 -72 -74 -146 0 -114 55 -165 176 -165 95 0
118 11 118 55 0 39 0 39 -68 24 -55 -13 -104 2 -110 33 -3 15 9 18 95 20 l98
3 -1 51 c-2 63 -27 108 -70 129 -44 21 -122 19 -164 -4z m124 -73 c21 -29 12
-38 -40 -38 -48 0 -57 15 -28 44 22 22 50 20 68 -6z"/>
</g>
</svg>
